<svg xmlns="http://www.w3.org/2000/svg" id="prefix__round-font_download-24px" width="18" height="18" viewBox="0 0 18 18">
    <path id="prefix__Path_34" d="M0 0h18v18H0z" data-name="Path 34" style="fill:none"/>
    <path id="prefix__Path_35" d="M7.551 10.05h2.9L9 6.186zM14.6 2H3.4A1.4 1.4 0 0 0 2 3.4v11.2A1.4 1.4 0 0 0 3.4 16h11.2a1.4 1.4 0 0 0 1.4-1.4V3.4A1.4 1.4 0 0 0 14.6 2zm-3 11.116l-.63-1.666H7.019L6.4 13.109a.678.678 0 1 1-1.267-.483L8.1 5.059A.97.97 0 0 1 9 4.45a.954.954 0 0 1 .889.609l2.975 7.567a.678.678 0 0 1-.63.924.692.692 0 0 1-.637-.434z" data-name="Path 35" style="fill:#076bcf"/>
</svg>
