<svg xmlns="http://www.w3.org/2000/svg" id="prefix__round-person_add-24px" width="18" height="18" viewBox="0 0 18 18">
    <defs>
        <style>
            .prefix__cls-2{fill:rgba(0,0,0,.6)}
        </style>
    </defs>
    <path id="prefix__Path_30" d="M0 0h18v18H0z" data-name="Path 30" style="fill:none"/>
    <path id="prefix__Path_31" d="M6 10V9a1 1 0 00-2 0v1H3a1 1 0 000 2h1v1a1 1 0 002 0v-1h1a1 1 0 000-2z" class="prefix__cls-2" data-name="Path 31" transform="translate(9 -5.5)"/>
    <path id="prefix__Path_17384" d="M15 5a1.137 1.137 0 00-1.05.69l-3.88 8.97a.964.964 0 101.78.74l.66-1.6h5l.66 1.6a.959.959 0 101.77-.74l-3.88-8.97A1.162 1.162 0 0015 5zm-1.87 7L15 6.98 16.87 12h-3.74z" class="prefix__cls-2" data-name="Path 17384" transform="translate(-7.714 -1.154)"/>
</svg>
